<svg width="24" height="24" viewBox="0 0 24 24" fill="none" xmlns="http://www.w3.org/2000/svg">
<path d="M21.1125 0C22.671 0 23.926 1.137 24 2.4765V24L21.0344 21.7267L19.407 20.391L17.6274 18.9923L18.368 21.1957H2.81351C1.25922 21.1957 0 20.133 0 18.7192V2.481C0 1.1415 1.26005 0.0045 2.81849 0.0045H21.1042L21.1125 0ZM14.3327 5.6835H14.2978L14.0725 5.883C16.3715 6.4845 17.4836 7.422 17.4836 7.422C16.0033 6.75375 14.6651 6.41775 13.3319 6.28125C12.3711 6.1485 11.4053 6.219 10.5916 6.28125H10.3663C9.84686 6.28125 8.73891 6.4845 7.25361 7.01925C6.73829 7.2225 6.4399 7.35525 6.4399 7.35525C6.4399 7.35525 7.54784 6.351 9.99813 5.81625L9.84686 5.6835C9.84686 5.6835 7.99418 5.61675 5.99439 6.95325C5.99439 6.95325 3.9946 10.098 3.9946 13.9725C3.9946 13.9725 5.10255 15.711 8.14213 15.777C8.14213 15.777 8.58764 15.246 9.03397 14.7772C7.32842 14.3085 6.66182 13.371 6.66182 13.371C6.66182 13.371 6.81309 13.4377 7.03418 13.5705H7.09901C7.13392 13.5705 7.15138 13.5862 7.168 13.602V13.6095C7.18545 13.6252 7.20291 13.6365 7.23283 13.6365C7.60104 13.773 7.96426 13.9058 8.26348 14.0385C8.78296 14.238 9.4454 14.4405 10.2591 14.574C11.2898 14.7105 12.4709 14.7735 13.8174 14.574C14.4798 14.4375 15.1464 14.3085 15.813 14.0385C16.2419 13.839 16.7738 13.6402 17.3581 13.3005C17.3581 13.3005 16.6957 14.238 14.9162 14.7067C15.2802 15.1717 15.7947 15.7065 15.7947 15.7065C18.8376 15.6442 20.0195 13.9057 20.0844 13.98C20.0844 10.1093 18.0713 6.96075 18.0713 6.96075C16.2618 5.74575 14.5646 5.69925 14.2662 5.69925L14.3269 5.67975L14.3327 5.6835ZM14.5189 10.098C15.2985 10.098 15.926 10.6958 15.926 11.43C15.926 12.1725 15.2943 12.7695 14.5189 12.7695C13.7392 12.7695 13.1117 12.1718 13.1117 11.4375C13.1117 10.695 13.7434 10.098 14.5189 10.098ZM9.48447 10.098C10.2591 10.098 10.8875 10.6958 10.8875 11.43C10.8875 12.1725 10.2558 12.7695 9.48031 12.7695C8.70068 12.7695 8.06899 12.1718 8.06899 11.4375C8.06899 10.695 8.70068 10.098 9.48031 10.098H9.48447Z" fill="white"/>
</svg>
