<svg width="24" height="24" viewBox="0 0 24 24" fill="none" xmlns="http://www.w3.org/2000/svg">
<path d="M9.3631 14.3954C8.69497 14.3954 8.15845 13.8581 8.15845 13.2046C8.15845 12.5373 8.69574 12 9.3631 12C10.0212 12 10.5538 12.5373 10.5538 13.2046C10.5538 13.8627 10.0165 14.3954 9.3631 14.3954ZM24 12C24 18.6294 18.6286 24 12 24C5.37135 24 0 18.6286 0 12C0 5.37058 5.37135 0 12 0C18.6286 0 24 5.37135 24 12ZM17.5982 10.0065C17.1437 10.0065 16.7419 10.1954 16.4462 10.4903C15.3623 9.74013 13.9014 9.25626 12.2803 9.20284L13.1218 5.41394L15.8028 6.01858C15.8028 6.67665 16.3401 7.20929 16.9928 7.20929C17.6609 7.20929 18.1974 6.66271 18.1974 6.00464C18.1974 5.34658 17.6601 4.8 16.9928 4.8C16.5236 4.8 16.1218 5.08103 15.9236 5.46813L12.9623 4.81006C12.8168 4.77135 12.6674 4.87819 12.6286 5.02297L11.7043 9.20361C10.0978 9.27174 8.65084 9.75019 7.56697 10.5004C7.272 10.1907 6.85548 10.0072 6.40103 10.0072C4.71252 10.0072 4.16052 12.2764 5.70426 13.0459C5.65084 13.2883 5.62219 13.5391 5.62219 13.7961C5.62219 16.3409 8.48671 18.4026 12.0093 18.4026C15.5466 18.4026 18.4111 16.3409 18.4111 13.7961C18.4111 13.5399 18.3817 13.2735 18.319 13.0312C19.8333 12.257 19.2766 10.0065 17.5982 10.0065ZM14.2645 15.6294C13.3843 16.5097 10.5825 16.4957 9.73548 15.6294C9.62942 15.5234 9.44052 15.5234 9.33368 15.6294C9.2129 15.7502 9.2129 15.9391 9.33368 16.0459C10.4369 17.1492 13.5577 17.1492 14.6663 16.0459C14.7871 15.9391 14.7871 15.751 14.6663 15.6294C14.5595 15.5234 14.3714 15.5234 14.2645 15.6294ZM14.6369 12C13.9788 12 13.4462 12.5373 13.4462 13.2046C13.4462 13.8627 13.9835 14.3954 14.6369 14.3954C15.305 14.3954 15.8415 13.8581 15.8415 13.2046C15.8415 12.5373 15.3089 12 14.6369 12Z" fill="white"/>
</svg>
